<svg width="196" height="118" viewBox="0 0 196 118" fill="none" xmlns="http://www.w3.org/2000/svg">
<rect y="48" width="195.57" height="23" fill="white"/>
<rect x="180" y="36.65" width="9.6" height="45.1" fill="#747474" stroke="black" stroke-width="0.7"/>
<rect x="7.29999" y="36.65" width="9.6" height="45.1" fill="#747474" stroke="black" stroke-width="0.7"/>
<rect x="16.65" y="17.65" width="20.7" height="82.9" fill="#747474" stroke="black" stroke-width="0.7"/>
<rect x="159.65" y="17.65" width="20.7" height="82.9" fill="#747474" stroke="black" stroke-width="0.7"/>
<path d="M46.4375 2H68.75ZM79.9062 2H91.0625ZM105.938 2H117.094ZM120.812 2H131.969ZM146.844 2H158ZM42.7188 5.88889H76.1875ZM79.9062 5.88889H91.0625ZM105.938 5.88889H117.094ZM120.812 5.88889H135.688ZM143.125 5.88889H158ZM39 9.77778H50.1562ZM68.75 9.77778H76.1875ZM83.625 9.77778H94.7812ZM102.219 9.77778H113.375ZM120.812 9.77778H135.688ZM143.125 9.77778H158ZM39 13.6667H46.4375ZM83.625 13.6667H113.375ZM120.812 13.6667H128.25ZM131.969 13.6667H146.844ZM150.562 13.6667H158ZM39 17.5556H46.4375ZM57.5938 17.5556H76.1875ZM87.3438 17.5556H109.656ZM120.812 17.5556H128.25ZM131.969 17.5556H146.844ZM150.562 17.5556H158ZM39 21.4444H46.4375ZM57.5938 21.4444H76.1875ZM94.7812 21.4444H102.219ZM120.812 21.4444H128.25ZM131.969 21.4444H146.844ZM150.562 21.4444H158ZM39 25.3333H46.4375ZM68.75 25.3333H76.1875ZM94.7812 25.3333H102.219ZM120.812 25.3333H128.25ZM135.688 25.3333H143.125ZM150.562 25.3333H158ZM39 29.2222H50.1562ZM65.0312 29.2222H76.1875ZM94.7812 29.2222H102.219ZM120.812 29.2222H128.25ZM135.688 29.2222H143.125ZM150.562 29.2222H158ZM42.7188 33.1111H72.4688ZM94.7812 33.1111H102.219ZM120.812 33.1111H128.25ZM135.688 33.1111H143.125ZM150.562 33.1111H158ZM46.4375 37H68.75ZM94.7812 37H102.219ZM120.812 37H128.25ZM150.562 37H158Z" fill="black"/>
<path d="M46.4375 2H68.75M79.9062 2H91.0625M105.938 2H117.094M120.812 2H131.969M146.844 2H158M42.7188 5.88889H76.1875M79.9062 5.88889H91.0625M105.938 5.88889H117.094M120.812 5.88889H135.688M143.125 5.88889H158M39 9.77778H50.1562M68.75 9.77778H76.1875M83.625 9.77778H94.7812M102.219 9.77778H113.375M120.812 9.77778H135.688M143.125 9.77778H158M39 13.6667H46.4375M83.625 13.6667H113.375M120.812 13.6667H128.25M131.969 13.6667H146.844M150.562 13.6667H158M39 17.5556H46.4375M57.5938 17.5556H76.1875M87.3438 17.5556H109.656M120.812 17.5556H128.25M131.969 17.5556H146.844M150.562 17.5556H158M39 21.4444H46.4375M57.5938 21.4444H76.1875M94.7812 21.4444H102.219M120.812 21.4444H128.25M131.969 21.4444H146.844M150.562 21.4444H158M39 25.3333H46.4375M68.75 25.3333H76.1875M94.7812 25.3333H102.219M120.812 25.3333H128.25M135.688 25.3333H143.125M150.562 25.3333H158M39 29.2222H50.1562M65.0312 29.2222H76.1875M94.7812 29.2222H102.219M120.812 29.2222H128.25M135.688 29.2222H143.125M150.562 29.2222H158M42.7188 33.1111H72.4688M94.7812 33.1111H102.219M120.812 33.1111H128.25M135.688 33.1111H143.125M150.562 33.1111H158M46.4375 37H68.75M94.7812 37H102.219M120.812 37H128.25M150.562 37H158" stroke="#9FB8D2" stroke-width="4"/>
<path d="M39 81H68.75ZM79.9062 81H113.375ZM120.812 81H158ZM39 84.8889H76.1875ZM79.9062 84.8889H117.094ZM120.812 84.8889H158ZM39 88.7778H46.4375ZM65.0312 88.7778H76.1875ZM79.9062 88.7778H91.0625ZM105.938 88.7778H117.094ZM120.812 88.7778H131.969ZM146.844 88.7778H158ZM39 92.6667H46.4375ZM65.0312 92.6667H76.1875ZM79.9062 92.6667H91.0625ZM105.938 92.6667H117.094ZM120.812 92.6667H131.969ZM146.844 92.6667H158ZM39 96.5556H72.4688ZM79.9062 96.5556H113.375ZM120.812 96.5556H131.969ZM146.844 96.5556H158ZM39 100.444H72.4688ZM79.9062 100.444H109.656ZM120.812 100.444H131.969ZM146.844 100.444H158ZM39 104.333H46.4375ZM65.0312 104.333H76.1875ZM79.9062 104.333H91.0625ZM98.5 104.333H113.375ZM120.812 104.333H131.969ZM146.844 104.333H158ZM39 108.222H46.4375ZM65.0312 108.222H76.1875ZM79.9062 108.222H91.0625ZM105.938 108.222H117.094ZM120.812 108.222H131.969ZM146.844 108.222H158ZM39 112.111H76.1875ZM79.9062 112.111H91.0625ZM105.938 112.111H117.094ZM120.812 112.111H158ZM39 116H68.75ZM79.9062 116H91.0625ZM105.938 116H117.094ZM120.812 116H158Z" fill="black"/>
<path d="M39 81H68.75M79.9062 81H113.375M120.812 81H158M39 84.8889H76.1875M79.9062 84.8889H117.094M120.812 84.8889H158M39 88.7778H46.4375M65.0312 88.7778H76.1875M79.9062 88.7778H91.0625M105.938 88.7778H117.094M120.812 88.7778H131.969M146.844 88.7778H158M39 92.6667H46.4375M65.0312 92.6667H76.1875M79.9062 92.6667H91.0625M105.938 92.6667H117.094M120.812 92.6667H131.969M146.844 92.6667H158M39 96.5556H72.4688M79.9062 96.5556H113.375M120.812 96.5556H131.969M146.844 96.5556H158M39 100.444H72.4688M79.9062 100.444H109.656M120.812 100.444H131.969M146.844 100.444H158M39 104.333H46.4375M65.0312 104.333H76.1875M79.9062 104.333H91.0625M98.5 104.333H113.375M120.812 104.333H131.969M146.844 104.333H158M39 108.222H46.4375M65.0312 108.222H76.1875M79.9062 108.222H91.0625M105.938 108.222H117.094M120.812 108.222H131.969M146.844 108.222H158M39 112.111H76.1875M79.9062 112.111H91.0625M105.938 112.111H117.094M120.812 112.111H158M39 116H68.75M79.9062 116H91.0625M105.938 116H117.094M120.812 116H158" stroke="#9FB8D2" stroke-width="4"/>
</svg>
